<svg width="34" height="109" viewBox="0 0 34 109" fill="none" xmlns="http://www.w3.org/2000/svg">
<path d="M4.94475 12.4813C7.54838 12.4813 9.65904 10.3706 9.65904 7.76702C9.65904 5.16339 7.54838 3.05273 4.94475 3.05273C2.34113 3.05273 0.230469 5.16339 0.230469 7.76702C0.230469 10.3706 2.34113 12.4813 4.94475 12.4813Z" fill="#2295F2" fill-opacity="0.31"/>
<path d="M4.94475 36.0536C7.54838 36.0536 9.65904 33.9429 9.65904 31.3393C9.65904 28.7357 7.54838 26.625 4.94475 26.625C2.34113 26.625 0.230469 28.7357 0.230469 31.3393C0.230469 33.9429 2.34113 36.0536 4.94475 36.0536Z" fill="#2295F2" fill-opacity="0.31"/>
<path d="M4.94475 59.6239C7.54838 59.6239 9.65904 57.5132 9.65904 54.9096C9.65904 52.306 7.54838 50.1953 4.94475 50.1953C2.34113 50.1953 0.230469 52.306 0.230469 54.9096C0.230469 57.5132 2.34113 59.6239 4.94475 59.6239Z" fill="#2295F2" fill-opacity="0.31"/>
<path d="M4.94475 83.1961C7.54838 83.1961 9.65904 81.0855 9.65904 78.4819C9.65904 75.8782 7.54838 73.7676 4.94475 73.7676C2.34113 73.7676 0.230469 75.8782 0.230469 78.4819C0.230469 81.0855 2.34113 83.1961 4.94475 83.1961Z" fill="#2295F2" fill-opacity="0.31"/>
<path d="M4.94475 106.766C7.54838 106.766 9.65904 104.656 9.65904 102.052C9.65904 99.4485 7.54838 97.3379 4.94475 97.3379C2.34113 97.3379 0.230469 99.4485 0.230469 102.052C0.230469 104.656 2.34113 106.766 4.94475 106.766Z" fill="#2295F2" fill-opacity="0.31"/>
<path d="M28.516 12.4813C31.1197 12.4813 33.2303 10.3706 33.2303 7.76702C33.2303 5.16339 31.1197 3.05273 28.516 3.05273C25.9124 3.05273 23.8018 5.16339 23.8018 7.76702C23.8018 10.3706 25.9124 12.4813 28.516 12.4813Z" fill="#2295F2" fill-opacity="0.31"/>
<path d="M28.516 36.0536C31.1197 36.0536 33.2303 33.9429 33.2303 31.3393C33.2303 28.7357 31.1197 26.625 28.516 26.625C25.9124 26.625 23.8018 28.7357 23.8018 31.3393C23.8018 33.9429 25.9124 36.0536 28.516 36.0536Z" fill="#2295F2" fill-opacity="0.31"/>
<path d="M28.516 59.6239C31.1197 59.6239 33.2303 57.5132 33.2303 54.9096C33.2303 52.306 31.1197 50.1953 28.516 50.1953C25.9124 50.1953 23.8018 52.306 23.8018 54.9096C23.8018 57.5132 25.9124 59.6239 28.516 59.6239Z" fill="#2295F2" fill-opacity="0.31"/>
<path d="M28.516 83.1961C31.1197 83.1961 33.2303 81.0855 33.2303 78.4819C33.2303 75.8782 31.1197 73.7676 28.516 73.7676C25.9124 73.7676 23.8018 75.8782 23.8018 78.4819C23.8018 81.0855 25.9124 83.1961 28.516 83.1961Z" fill="#2295F2" fill-opacity="0.31"/>
<path d="M28.516 106.766C31.1197 106.766 33.2303 104.656 33.2303 102.052C33.2303 99.4485 31.1197 97.3379 28.516 97.3379C25.9124 97.3379 23.8018 99.4485 23.8018 102.052C23.8018 104.656 25.9124 106.766 28.516 106.766Z" fill="#2295F2" fill-opacity="0.31"/>
</svg>
